<svg xmlns="http://www.w3.org/2000/svg" x="0px" y="0px" width="100" height="100"
  viewBox="0,0,256,256">
  <g fill="#ffffff" fill-rule="nonzero" stroke="none" stroke-width="1" stroke-linecap="butt"
    stroke-linejoin="miter" stroke-miterlimit="10" stroke-dasharray="" stroke-dashoffset="0"
    font-family="none" font-weight="none" font-size="none" text-anchor="none"
    style="mix-blend-mode: normal">
    <g transform="scale(8.53333,8.53333)">
      <path
        d="M15,3c-6.6,0 -12,5.4 -12,12c0,6.6 5.4,12 12,12c6.6,0 12,-5.4 12,-12c0,-6.6 -5.4,-12 -12,-12zM19.731,21c-0.22,0 -0.33,-0.11 -0.55,-0.22c-1.65,-0.991 -3.74,-1.54 -5.94,-1.54c-1.21,0 -2.53,0.22 -3.63,0.44c-0.22,0 -0.44,0.11 -0.55,0.11c-0.44,0 -0.77,-0.33 -0.77,-0.77c0,-0.44 0.22,-0.77 0.66,-0.77c1.43,-0.33 2.861,-0.55 4.401,-0.55c2.53,0 4.84,0.66 6.82,1.76c0.22,0.22 0.44,0.33 0.44,0.77c-0.222,0.55 -0.552,0.77 -0.881,0.77zM20.94,17.921c-0.22,0 -0.44,-0.11 -0.66,-0.22c-1.87,-1.21 -4.511,-1.87 -7.37,-1.87c-1.43,0 -2.751,0.22 -3.74,0.44c-0.22,0.11 -0.33,0.11 -0.55,0.11c-0.55,0 -0.881,-0.44 -0.881,-0.881c0,-0.55 0.22,-0.77 0.77,-0.991c1.32,-0.33 2.641,-0.66 4.511,-0.66c3.08,0 5.94,0.77 8.361,2.2c0.33,0.22 0.55,0.55 0.55,0.881c-0.111,0.55 -0.44,0.991 -0.991,0.991zM22.37,14.4c-0.22,0 -0.33,-0.11 -0.66,-0.22c-2.2,-1.21 -5.39,-1.98 -8.47,-1.98c-1.54,0 -3.19,0.22 -4.621,0.55c-0.22,0 -0.33,0.11 -0.66,0.11c-0.66,0.111 -1.1,-0.44 -1.1,-1.099c0,-0.659 0.33,-0.991 0.77,-1.1c1.761,-0.441 3.631,-0.661 5.611,-0.661c3.41,0 6.93,0.77 9.681,2.2c0.33,0.22 0.66,0.55 0.66,1.1c-0.11,0.66 -0.551,1.1 -1.211,1.1z"></path>
    </g>
  </g>
</svg>